HIERARCHY
ROOT Hips
{
  OFFSET 40.9192 92.6879 18.85
  CHANNELS 6 Xposition Yposition Zposition Zrotation Xrotation Yrotation
  JOINT LeftUpLeg
  {
    OFFSET 8.64259 1.95398 -2.38835
    CHANNELS 3 Zrotation Xrotation Yrotation
    JOINT LeftLeg
    {
      OFFSET 43.7702 0 0
      CHANNELS 3 Zrotation Xrotation Yrotation
      JOINT LeftFoot
      {
        OFFSET 40.6238 0 0
        CHANNELS 3 Zrotation Xrotation Yrotation
        JOINT LeftToeBase
        {
          OFFSET 12.7242 0 0
          CHANNELS 3 Zrotation Xrotation Yrotation
          End Site
          {
            OFFSET 0 0 0
          }
        }
      }
    }
  }
  JOINT RightUpLeg
  {
    OFFSET -8.2249 1.95398 -2.59336
    CHANNELS 3 Zrotation Xrotation Yrotation
    JOINT RightLeg
    {
      OFFSET 43.5653 0 0
      CHANNELS 3 Zrotation Xrotation Yrotation
      JOINT RightFoot
      {
        OFFSET 40.6238 0 0
        CHANNELS 3 Zrotation Xrotation Yrotation
        JOINT RightToeBase
        {
          OFFSET 12.7242 0 0
          CHANNELS 3 Zrotation Xrotation Yrotation
          End Site
          {
            OFFSET 0 0 0
          }
        }
      }
    }
  }
  JOINT Spine
  {
    OFFSET 0.165834 0.87714 6.61349
    CHANNELS 3 Zrotation Xrotation Yrotation
    JOINT Spine1
    {
      OFFSET 7.38963 1.71661e-005 0
      CHANNELS 3 Zrotation Xrotation Yrotation
      JOINT Spine2
      {
        OFFSET 11.9445 1.14441e-005 0
        CHANNELS 3 Zrotation Xrotation Yrotation
        JOINT Spine3
        {
          OFFSET 14.7254 4.19617e-005 0
          CHANNELS 3 Zrotation Xrotation Yrotation
          JOINT Spine4
          {
            OFFSET 10.9679 0 0
            CHANNELS 3 Zrotation Xrotation Yrotation
            JOINT RightShoulder
            {
              OFFSET 2.46616 -1.6653 3.69651
              CHANNELS 3 Zrotation Xrotation Yrotation
              JOINT RightArm
              {
                OFFSET 13.0012 0 0
                CHANNELS 3 Zrotation Xrotation Yrotation
                JOINT RightForeArm
                {
                  OFFSET 28.7848 1.52588e-005 0
                  CHANNELS 3 Zrotation Xrotation Yrotation
                  JOINT RightHand
                  {
                    OFFSET 26.5688 1.52588e-005 0
                    CHANNELS 3 Zrotation Xrotation Yrotation
                    End Site
                    {
                      OFFSET 0 0 0
                    }
                  }
                }
              }
            }
            JOINT LeftShoulder
            {
              OFFSET 2.38034 -1.29275 -3.7523
              CHANNELS 3 Zrotation Xrotation Yrotation
              JOINT LeftArm
              {
                OFFSET 16.3182 6.10351e-005 0
                CHANNELS 3 Zrotation Xrotation Yrotation
                JOINT LeftForeArm
                {
                  OFFSET 27.0901 0 0
                  CHANNELS 3 Zrotation Xrotation Yrotation
                  JOINT LeftHand
                  {
                    OFFSET 24.5451 1.52588e-005 0
                    CHANNELS 3 Zrotation Xrotation Yrotation
                    End Site
                    {
                      OFFSET 0 0 0
                    }
                  }
                }
              }
            }
            JOINT Neck
            {
              OFFSET 5.0226 -0.0266342 0
              CHANNELS 3 Zrotation Xrotation Yrotation
              JOINT Head
              {
                OFFSET 6.69363 2.86102e-005 0
                CHANNELS 3 Zrotation Xrotation Yrotation
                End Site
                {
                  OFFSET 0 0 0
                }
              }
            }
          }
        }
      }
    }
  }
}
MOTION
Frames:	12
Frame Time:	0.0416667
31.32 83.966 -20.3587 78.4423 -25.1094 84.95 -161.622 54.4949 95.9656 -65.0674 7.4434 -3.1304 65.3675 7.00268 7.48401 43.4274 12.7564 11.3709 -171.806 33.4373 73.5585 -51.8514 -8.67103 -12.7883 74.618 -9.85909 -4.63612 53.0853 0.00979775 -8.12451 0.140117 9.48298 -90.3681 7.90771 0.119034 -0.733229 -3.76344 0.0866341 -0.737767 -26.2972 0.333889 -0.663559 -6.28456 0.333873 -0.66358 92.3911 -40.3438 -99.1839 24.3853 -2.34212 2.38545 -2.37145 -5.04158 -68.901 -25.3547 -0.44686 -3.0984 -102.915 -49.4004 59.5692 -24.6902 15.5785 13.3749 0.874387 5.58045 -38.0841 14.2815 1.01687 3.16615 13.1707 26.4324 -4.40035 1.07571 28.175 30.1695 
33.2319 83.5807 -20.6342 79.6055 -21.8577 86.0511 -159.173 56.1093 95.5006 -65.951 3.71531 -3.50062 66.7893 7.56017 6.40897 40.7405 10.3998 13.691 -174.475 30.0798 73.5109 -50.9412 -7.96174 -12.5002 76.0824 -10.5523 -4.81209 53.9394 -0.218266 -9.45796 0.285869 9.38201 -90.1077 8.1104 0.523383 -0.242892 -3.56047 0.512204 -0.265704 -26.0965 0.572185 -0.0743666 -6.08379 0.57221 -0.0743498 92.5076 -40.8454 -98.8652 26.6976 -5.42744 1.40811 -7.70833 -5.48804 -78.5746 -22.2636 -0.634302 -1.77149 -99.7245 -47.7905 63.5823 -30.5124 18.6251 18.5887 1.65547 7.14924 -40.8059 13.0223 0.977408 3.51906 14.9754 24.6585 -6.57734 1.38325 26.9828 28.7053 
36.0967 83.7865 -21.4471 80.6217 -17.4254 88.3434 -155.972 58.0632 94.8947 -67.8263 1.03443 -4.07733 66.1027 5.73779 4.21575 39.8684 9.5866 14.4657 -178.703 24.6474 74.3017 -46.6604 -7.25907 -11.601 75.6903 -10.6751 -4.88568 55.9566 -0.210875 -9.02314 0.448618 9.24004 -90.0284 8.39439 0.882771 -0.110812 -3.27626 0.87705 -0.149563 -25.8138 0.875262 0.159653 -5.80113 0.87525 0.159626 93.6056 -41.2116 -96.8919 29.2583 -9.34387 1.02299 -14.7047 -5.0478 -87.5789 -23.6751 -0.31634 -3.24714 -96.2837 -45.4885 67.9358 -37.5634 19.6336 25.6359 2.51608 5.93944 -46.9724 14.0975 0.787636 1.68591 17.5677 22.9269 -8.22227 0.417839 25.5201 27.0979 
40.3705 84.5383 -23.1994 80.3525 -12.3633 90.4509 -151.34 58.8887 92.1491 -69.3096 1.366 -4.8461 65.3184 5.01753 3.69194 38.7361 8.48467 15.1624 175.923 18.1496 74.2915 -39.2317 -9.43377 -10.4108 72.3593 -8.83651 -4.29708 57.8517 -0.47362 -10.0898 0.655556 8.8517 -90.0303 9.17173 1.29392 -0.15105 -2.49858 1.28604 -0.207873 -25.0388 1.27948 0.244876 -5.02619 1.2795 0.244873 94.6684 -41.1496 -95.0654 31.406 -13.3147 2.94749 -17.1635 -1.77433 -94.6399 -23.8152 -0.337294 -3.09742 -94.7652 -44.1809 69.8575 -43.3773 19.8421 33.7319 1.92266 3.16648 -53.4458 15.0383 0.68268 0.679309 16.5422 20.3669 -8.84223 1.4559 23.3019 25.065 
45.4697 85.9784 -26.043 80.2591 -8.25013 93.7523 -148.823 57.5756 91.6654 -69.1545 5.05414 -5.71072 63.1124 3.88653 6.11871 40.7367 10.454 14.3762 171.073 10.754 74.4647 -29.7545 -12.6803 -8.35026 62.7928 -4.3568 -2.40189 58.7798 -0.938623 -12.2511 0.904581 8.46241 -90.1096 9.9526 1.75304 -0.360989 -1.71723 1.73548 -0.437826 -24.2619 1.78046 0.18274 -4.2492 1.78048 0.182729 95.4789 -40.9459 -93.697 33.43 -15.5916 5.43283 -21.5216 1.34229 -99.2604 -22.1372 -0.628718 -1.50683 -93.2783 -42.6425 71.7269 -48.1887 17.8666 39.5937 1.56989 1.7261 -56.8648 16.8747 0.622868 -0.16802 14.9328 17.7162 -9.27241 2.40468 20.7785 22.0232 
50.6164 87.5634 -29.9464 81.7339 -5.52041 97.3752 -149.933 52.6427 94.5718 -67.0576 9.17981 -6.71805 61.1239 2.34161 5.28991 42.0377 11.8585 15.3638 168.579 3.41317 74.6728 -21.1523 -10.138 -6.62363 49.0855 0.902134 1.14487 56.0457 -0.547175 -10.9272 1.17802 8.4436 -90.1926 9.99356 2.26018 -0.568069 -1.67559 2.23297 -0.667041 -24.2265 2.32637 0.137847 -4.2139 2.32636 0.13784 95.8086 -40.4419 -93.2011 34.3605 -17.0365 7.19082 -22.3896 0.878556 -99.3336 -17.398 -0.717058 -0.449594 -93.2838 -41.7665 71.4415 -50.2328 12.9995 41.0762 0.0266204 -0.0946095 -56.8645 19.9963 0.571631 -1.02192 15.2736 15.3445 -9.06783 3.74383 18.423 18.1009 
55.8704 88.5531 -34.3806 79.3157 -1.51836 100.149 -151.409 48.5692 93.6738 -63.7755 10.6827 -7.80215 64.4791 5.91615 7.28252 43.6711 12.6978 9.08445 169.749 0.28986 76.561 -18.1351 -3.99784 -6.42936 43.0715 2.66151 2.85072 37.2677 0.295906 -11.7156 1.2237 8.20117 -90.1686 10.4793 2.36015 -0.545929 -1.18967 2.33383 -0.649328 -23.7421 2.41505 0.189055 -3.72944 2.41505 0.189056 95.7526 -39.7767 -93.4046 34.6614 -18.0816 8.79962 -21.8456 -0.413821 -97.424 -20.9507 -0.621715 -1.42635 -93.6785 -42.5241 71.0457 -48.4416 10.6036 39.3094 -2.86329 -2.54028 -56.6913 21.9646 0.942761 0.389917 17.855 12.9419 -10.0863 2.91244 16.2273 15.352 
60.7049 88.6704 -38.2802 76.4035 2.44949 102.243 -154.01 45.2321 92.8242 -61.4026 10.6643 -8.31451 69.9011 11.0659 9.50765 43.2703 12.2691 8.54858 173.252 1.87281 79.8564 -26.2072 1.2692 -6.40411 47.8629 0.32739 0.741777 27.2663 0.721428 -10.1194 1.15667 7.95599 -89.9612 10.9648 2.32072 -0.143332 -0.704099 2.31217 -0.245394 -23.2552 2.25646 0.56114 -3.24258 2.25647 0.56114 95.3754 -40.3781 -93.9701 35.0588 -17.332 11.0076 -20.6315 -4.44972 -91.8416 -18.7808 -0.68919 -0.804029 -94.5524 -45.5532 70.6255 -42.4426 9.30709 36.0567 -3.50672 -3.35349 -56.8532 25.1986 1.3774 1.64138 18.6756 10.8002 -10.2805 4.40856 14.1445 11.3403 
64.4568 88.2755 -41.5956 75.2182 7.63526 103.818 -156.706 43.1315 91.9407 -61.2785 14.3424 -7.62307 68.6324 11.195 14.5283 46.2961 14.8131 7.44271 177.195 6.39198 84.0618 -41.4656 1.41312 -6.53503 49.2798 -0.276625 0.150904 30.1989 0.553212 -9.39939 0.917177 8.05667 -89.7215 10.7584 1.95493 0.372939 -0.911135 1.96947 0.286494 -23.4558 1.75243 0.943382 -3.44317 1.75246 0.94339 94.7729 -41.6206 -94.8023 35.2005 -16.4193 13.1575 -17.9527 -8.31219 -83.3064 -17.2402 -0.669633 -0.728383 -96.0761 -48.6386 69.2953 -35.0297 8.17072 31.7936 -3.59008 -3.6173 -59.182 30.6182 1.6253 1.40644 18.9233 9.06941 -10.3964 7.26211 12.5223 8.66038 
67.9705 88.1198 -44.7931 74.6795 14.2976 104.077 -160.058 40.0532 90.5394 -62.5782 13.9056 -5.87659 69.5048 10.817 9.60681 46.3038 15.0005 8.56469 179.227 13.5259 87.403 -58.6249 -1.48294 -5.45402 46.9202 0.869029 1.02448 33.1102 0.398952 -6.88793 0.501947 8.43225 -89.3741 10.0018 1.28517 1.13634 -1.66894 1.33394 1.07868 -24.2029 0.88427 1.47001 -4.19024 0.884296 1.47002 94.7346 -43.9991 -94.4631 33.8111 -17.5423 13.9554 -12.7455 -13.8176 -73.1631 -17.1786 -0.616132 -1.06514 -96.6689 -49.5842 68.7209 -28.0301 6.05471 24.8226 -2.74507 -3.10825 -62.0085 35.4125 1.84282 1.27521 20.332 7.17523 -12.5016 9.75329 11.5721 8.406 
71.6141 87.3524 -48.0799 74.7677 20.0028 103.332 -162.642 35.0235 89.029 -61.8387 16.9201 -5.43179 69.0459 11.5345 12.3728 49.1549 17.3703 7.66346 -179.92 22.4881 89.4358 -74.1899 -4.19094 -3.99835 47.6636 0.855244 0.865267 38.4446 0.312643 -7.48236 0.203533 8.80593 -89.1325 9.25282 0.794722 1.6603 -2.4189 0.867015 1.62371 -24.9459 0.259111 1.82234 -4.93322 0.259094 1.82233 93.8699 -45.0451 -95.7134 35.4723 -15.5892 19.5013 -11.2995 -16.1393 -66.1598 -15.3625 -0.844263 0.79846 -97.6852 -49.3734 67.1571 -23.1087 3.21812 17.6371 1.09972 -1.28947 -68.5447 38.2688 2.55604 2.78616 19.1348 6.17746 -11.1875 13.4095 10.0686 6.32774 
75.4569 86.8659 -52.2414 72.5546 24.7229 105.013 -165.031 30.4552 88.427 -58.9283 17.868 -4.7929 71.64 14.602 12.4196 48.6484 17.0314 8.2213 178.387 34.1823 91.7586 -83.9649 -2.86315 -2.40753 48.7447 0.334876 0.41394 41.6704 0.182573 -9.6056 -0.115023 8.79946 -89.165 9.27139 0.145185 1.64553 -2.40058 0.217471 1.63754 -24.9277 -0.356004 1.61311 -4.91501 -0.356009 1.61311 93.7055 -46.1507 -95.7834 35.544 -16.1607 25.3959 -10.1729 -20.7692 -59.942 -13.167 -0.836922 1.28115 -96.6397 -47.8118 68.1822 -20.7207 2.23088 10.1919 3.98264 -1.48983 -77.0772 40.6049 2.39855 1.93853 18.4057 5.50117 -10.7814 14.2367 9.09338 5.15665 
